# xmcd
#
# Track frame offsets: 
#        183
#        20575
#        36775
#        56553
#        72620
#        98203
#        114738
#        133015
#        146985
#        161543
#
# Disc length: 2509 seconds
#
# Revision: 6
# Processed by: cddbd v1.5.2PL0 Copyright (c) Steve Scherf et al.
# Submitted via: ExactAudioCopy v1.0b3
#
DISCID=9609cb0a
DTITLE=Richard Thompson - Across A Crowded Room
DYEAR=1985
DGENRE=Rock
TTITLE0=When The Spell Is Broken
TTITLE1=You Don't Say
TTITLE2=I Ain't Going To Drag My Feet My Feet No More
TTITLE3=Shine On Love
TTITLE4=Ghosts In The Wind
TTITLE5=Fire In The Engine Room
TTITLE6=Walking Through A Wasted Land
TTITLE7=Little Blue Number
TTITLE8=She Twists The Knife Again
TTITLE9=Love In A Faithless Country
EXTD=Copyright 1985 PolyGram Records, Inc.
EXTT0=
EXTT1=
EXTT2=
EXTT3=
EXTT4=
EXTT5=
EXTT6=
EXTT7=
EXTT8=
EXTT9=
PLAYORDER=
